<svg width="33" height="32" viewBox="0 0 33 32" fill="none" xmlns="http://www.w3.org/2000/svg">
<g clip-path="url(#clip0_1128_4400)">
<path d="M32.6454 7.62H31.1254V9.14H32.6454V7.62Z" fill="#000001"/>
<path d="M28.0754 15.24V16.76H25.0354V18.29H28.0754V27.43H21.9854V28.95H28.0754V30.48H32.6454V15.24H28.0754Z" fill="#000001"/>
<path d="M31.1254 9.14001H29.6054V10.67H31.1254V9.14001Z" fill="#000001"/>
<path d="M29.6054 7.62H28.0754V9.14H29.6054V7.62Z" fill="#000001"/>
<path d="M28.0754 9.14001H26.5554V10.67H28.0754V9.14001Z" fill="#000001"/>
<path d="M28.0754 1.53H26.5554V3.05H28.0754V1.53Z" fill="#000001"/>
<path d="M26.5554 7.62H25.0354V9.14H26.5554V7.62Z" fill="#000001"/>
<path d="M25.0354 15.24H23.5054V16.76H25.0354V15.24Z" fill="#000001"/>
<path d="M23.5054 13.72H21.9854V15.24H23.5054V13.72Z" fill="#000001"/>
<path d="M21.9854 22.86H20.4554V25.91H17.4154V28.95H18.9354V27.43H21.9854V22.86Z" fill="#000001"/>
<path d="M20.4554 21.34H18.9354V22.86H20.4554V21.34Z" fill="#000001"/>
<path d="M20.4554 3.04999H18.9354V4.56999H20.4554V3.04999Z" fill="#000001"/>
<path d="M18.9354 19.81H17.4154V21.34H18.9354V19.81Z" fill="#000001"/>
<path d="M18.9354 16.76H17.4154V18.29H18.9354V16.76Z" fill="#000001"/>
<path d="M21.9854 12.19H15.8854V13.72H21.9854V12.19Z" fill="#000001"/>
<path d="M18.9354 4.57001H17.4154V6.10001H18.9354V4.57001Z" fill="#000001"/>
<path d="M18.9354 1.53H17.4154V3.05H18.9354V1.53Z" fill="#000001"/>
<path d="M17.4154 24.38H15.8854V25.91H17.4154V24.38Z" fill="#000001"/>
<path d="M17.4154 18.29H15.8854V19.81H17.4154V18.29Z" fill="#000001"/>
<path d="M17.4154 3.04999H15.8854V4.56999H17.4154V3.04999Z" fill="#000001"/>
<path d="M14.3654 30.48H9.79538V32H15.8854V30.48H17.4154V28.95H14.3654V30.48Z" fill="#000001"/>
<path d="M15.8854 13.72H14.3654V15.24H15.8854V13.72Z" fill="#000001"/>
<path d="M14.3654 27.43H12.8354V28.95H14.3654V27.43Z" fill="#000001"/>
<path d="M15.8854 19.81H12.8354V21.34H15.8854V19.81Z" fill="#000001"/>
<path d="M14.3654 15.24H12.8354V16.76H14.3654V15.24Z" fill="#000001"/>
<path d="M14.3654 12.19H11.3154V13.72H14.3654V12.19Z" fill="#000001"/>
<path d="M12.8354 25.91H11.3154V27.43H12.8354V25.91Z" fill="#000001"/>
<path d="M12.8354 16.76H11.3154V19.81H12.8354V16.76Z" fill="#000001"/>
<path d="M12.8354 6.10001H11.3154V7.62001H12.8354V6.10001Z" fill="#000001"/>
<path d="M11.3154 13.72H9.79538V15.24H11.3154V13.72Z" fill="#000001"/>
<path d="M9.79538 28.95H8.26538V30.48H9.79538V28.95Z" fill="#000001"/>
<path d="M9.79538 15.24H8.26538V16.76H9.79538V15.24Z" fill="#000001"/>
<path d="M5.22539 27.43V18.29H8.26539V16.76H5.22539V15.24H0.645386V30.48H5.22539V28.95H8.26539V27.43H5.22539Z" fill="#000001"/>
<path d="M8.26539 0H6.74539V1.53H8.26539V0Z" fill="#000001"/>
<path d="M5.22538 12.19V10.67H6.74538V9.14H5.22538V7.62H3.69538V9.14H2.17538V10.67H3.69538V12.19H5.22538Z" fill="#000001"/>
</g>
<defs>
<clipPath id="clip0_1128_4400">
<rect width="32" height="32" fill="white" transform="translate(0.645386)"/>
</clipPath>
</defs>
</svg>
