<svg width="33" height="32" viewBox="0 0 33 32" fill="none" xmlns="http://www.w3.org/2000/svg">
<path d="M28.2852 3.05H29.8052V1.52H31.3252V0H22.1852V1.52H28.2852V3.05Z" fill="#000001"/>
<path d="M28.2851 3.04999H26.7551V4.56999H28.2851V3.04999Z" fill="#000001"/>
<path d="M26.7551 4.57001H25.2351V6.10001H26.7551V4.57001Z" fill="#000001"/>
<path d="M25.2351 6.10001H23.7151V7.62001H25.2351V6.10001Z" fill="#000001"/>
<path d="M23.7152 7.62H22.1852V10.67H23.7152V7.62Z" fill="#000001"/>
<path d="M23.7152 3.04999H22.1852V4.56999H23.7152V3.04999Z" fill="#000001"/>
<path d="M22.1852 10.67H20.6652V12.19H22.1852V10.67Z" fill="#000001"/>
<path d="M22.1852 4.57001H20.6652V6.10001H22.1852V4.57001Z" fill="#000001"/>
<path d="M22.1851 1.51999H19.1351V3.04999H22.1851V1.51999Z" fill="#000001"/>
<path d="M20.6651 6.10001H19.1351V7.62001H20.6651V6.10001Z" fill="#000001"/>
<path d="M20.6651 12.19H17.6151V13.72H20.6651V12.19Z" fill="#000001"/>
<path d="M19.1351 7.62H17.6151V9.14H19.1351V7.62Z" fill="#000001"/>
<path d="M19.1351 3.04999H17.6151V4.56999H19.1351V3.04999Z" fill="#000001"/>
<path d="M3.90512 32H17.6151V30.48H19.1351V24.38H17.6151V25.91H9.99512V24.38H6.95012V22.86H3.90512V24.38H2.37512V30.48H3.90512V32ZM5.42512 25.91H6.95012V28.95H10.0001V30.48H6.95012V28.95H5.42512V25.91Z" fill="#000001"/>
<path d="M17.6151 9.14001H16.0951V10.67H17.6151V9.14001Z" fill="#000001"/>
<path d="M17.6151 4.57001H16.0951V6.10001H17.6151V4.57001Z" fill="#000001"/>
<path d="M17.6151 22.86H14.5651V24.38H17.6151V22.86Z" fill="#000001"/>
<path d="M17.6151 13.72H14.5651V12.19H13.0451V10.67H11.5251V15.24H17.6151V13.72Z" fill="#000001"/>
<path d="M16.0951 10.67H14.5651V12.19H16.0951V10.67Z" fill="#000001"/>
<path d="M16.0951 6.10001H14.5651V7.62001H16.0951V6.10001Z" fill="#000001"/>
<path d="M14.5652 7.62H13.0452V10.67H14.5652V7.62Z" fill="#000001"/>
<path d="M8.47517 19.81H13.0452V22.86H14.5652V19.81H16.0952V18.29H11.5252V15.24H9.99517V18.29H5.42517V19.81H6.94517V22.86H8.47517V19.81Z" fill="#000001"/>
</svg>
