<svg width="33" height="32" viewBox="0 0 33 32" fill="none" xmlns="http://www.w3.org/2000/svg">
<g clip-path="url(#clip0_1128_7402)">
<path d="M32.8501 25.9H31.3301V30.47H32.8501V25.9Z" fill="#000001"/>
<path d="M31.33 24.38H29.8V25.9H31.33V24.38Z" fill="#000001"/>
<path d="M29.8002 12.19H31.3302V6.09001H32.8502V4.57001H28.2802V6.09001H29.8002V12.19Z" fill="#000001"/>
<path d="M31.3301 30.47H2.37012V32H31.3301V30.47Z" fill="#000001"/>
<path d="M29.8002 12.19H28.2802V13.71H29.8002V12.19Z" fill="#000001"/>
<path d="M28.2801 27.43H26.7501V28.95H28.2801V27.43Z" fill="#000001"/>
<path d="M29.8001 22.85H25.2301V24.38H29.8001V22.85Z" fill="#000001"/>
<path d="M28.2801 13.71H26.7501V15.24H28.2801V13.71Z" fill="#000001"/>
<path d="M28.2801 6.09003H25.2301V7.62003H28.2801V6.09003Z" fill="#000001"/>
<path d="M26.7501 10.66H23.7101V12.19H26.7501V10.66Z" fill="#000001"/>
<path d="M25.2301 24.38H23.7101V25.9H25.2301V24.38Z" fill="#000001"/>
<path d="M25.2301 7.62H22.1801V9.14H25.2301V7.62Z" fill="#000001"/>
<path d="M23.7101 21.33H22.1801V24.38H23.7101V21.33Z" fill="#000001"/>
<path d="M26.7501 15.24H22.1801V16.76H26.7501V15.24Z" fill="#000001"/>
<path d="M23.7101 12.19H22.1801V13.71H23.7101V12.19Z" fill="#000001"/>
<path d="M22.1802 13.71H20.6602V15.24H22.1802V13.71Z" fill="#000001"/>
<path d="M22.1802 9.14001H20.6602V10.66H22.1802V9.14001Z" fill="#000001"/>
<path d="M22.1801 25.9H19.1301V28.95H22.1801V25.9Z" fill="#000001"/>
<path d="M22.1801 19.81H19.1301V21.33H22.1801V19.81Z" fill="#000001"/>
<path d="M20.6601 10.66H19.1301V13.71H20.6601V10.66Z" fill="#000001"/>
<path d="M19.1301 22.85H17.6101V24.38H19.1301V22.85Z" fill="#000001"/>
<path d="M19.1301 18.28H17.6101V16.76H20.6601V15.24H17.6101V9.14001H16.0901V12.19H14.5601V13.71H16.0901V18.28H14.5601V19.81H19.1301V18.28Z" fill="#000001"/>
<path d="M16.0901 6.09003H14.5601V9.14003H16.0901V6.09003Z" fill="#000001"/>
<path d="M16.09 22.85H13.04V25.9H16.09V22.85Z" fill="#000001"/>
<path d="M14.5601 19.81H11.5201V21.33H14.5601V19.81Z" fill="#000001"/>
<path d="M14.56 10.66H13.04V12.19H14.56V10.66Z" fill="#000001"/>
<path d="M14.56 4.57001H13.04V6.09001H14.56V4.57001Z" fill="#000001"/>
<path d="M14.5601 13.71H9.99011V15.24H14.5601V13.71Z" fill="#000001"/>
<path d="M13.0401 9.14001H11.5201V10.66H13.0401V9.14001Z" fill="#000001"/>
<path d="M13.0401 3.04999H11.5201V4.56999H13.0401V3.04999Z" fill="#000001"/>
<path d="M11.5201 27.43H9.99011V28.95H11.5201V27.43Z" fill="#000001"/>
<path d="M11.5201 21.33H9.99011V24.38H11.5201V21.33Z" fill="#000001"/>
<path d="M11.5201 7.62H9.99011V9.14H11.5201V7.62Z" fill="#000001"/>
<path d="M9.99009 24.38H8.47009V25.9H9.99009V24.38Z" fill="#000001"/>
<path d="M9.99009 12.19H8.47009V13.71H9.99009V12.19Z" fill="#000001"/>
<path d="M9.99009 6.09003H8.47009V7.62003H9.99009V6.09003Z" fill="#000001"/>
<path d="M11.5201 1.52002H8.47009V3.05002H11.5201V1.52002Z" fill="#000001"/>
<path d="M8.47006 10.66H6.94006V12.19H8.47006V10.66Z" fill="#000001"/>
<path d="M8.47006 4.57001H6.94006V6.09001H8.47006V4.57001Z" fill="#000001"/>
<path d="M6.94004 27.43H5.42004V28.95H6.94004V27.43Z" fill="#000001"/>
<path d="M8.47015 22.85H3.90015V24.38H8.47015V22.85Z" fill="#000001"/>
<path d="M6.94004 7.62H5.42004V10.66H6.94004V7.62Z" fill="#000001"/>
<path d="M5.42015 4.57001H3.90015V7.62001H5.42015V4.57001Z" fill="#000001"/>
<path d="M8.47012 0H2.37012V1.52H8.47012V0Z" fill="#000001"/>
<path d="M3.90012 24.38H2.37012V25.9H3.90012V24.38Z" fill="#000001"/>
<path d="M3.90012 3.04999H2.37012V4.56999H3.90012V3.04999Z" fill="#000001"/>
<path d="M2.3701 25.9H0.850098V30.47H2.3701V25.9Z" fill="#000001"/>
<path d="M2.3701 1.52002H0.850098V3.05002H2.3701V1.52002Z" fill="#000001"/>
</g>
<defs>
<clipPath id="clip0_1128_7402">
<rect width="32" height="32" fill="white" transform="translate(0.850098)"/>
</clipPath>
</defs>
</svg>
