<svg width="33" height="33" viewBox="0 0 33 33" fill="none" xmlns="http://www.w3.org/2000/svg">
<g clip-path="url(#clip0_1128_9136)">
<path d="M26.7601 10.92H6.9501V7.87H5.4201V12.44H6.9501V21.58H8.4701V27.68H10.0001V26.16H23.7101V27.68H25.2301V21.58H26.7601V12.44H28.2801V7.87H26.7601V10.92ZM23.7101 24.63H10.0001V23.11H23.7101V24.63ZM23.7101 20.06H22.1901V21.58H20.6601V20.06H19.1401V21.58H17.6101V20.06H16.0901V21.58H14.5701V20.06H13.0401V21.58H11.5201V20.06H10.0001V18.54H11.5201V20.06H13.0401V18.54H14.5701V20.06H16.0901V18.54H17.6101V20.06H19.1401V18.54H20.6601V20.06H22.1901V18.54H23.7101V20.06ZM25.2301 17.01H8.4701V15.49H25.2301V17.01ZM25.2301 13.97H8.4701V12.44H25.2301V13.97Z" fill="#000001"/>
<path d="M25.2301 0.25H20.6601V1.77H25.2301V0.25Z" fill="#000001"/>
<path d="M22.1901 30.73H11.5201V27.68H10.0001V32.25H23.7101V27.68H22.1901V30.73Z" fill="#000001"/>
<path d="M20.6601 1.77002H19.1401V3.30002H20.6601V1.77002Z" fill="#000001"/>
<path d="M19.1401 3.29999H8.47009V4.81999H19.1401V3.29999Z" fill="#000001"/>
<path d="M26.7601 7.87002V1.77002H25.2301V6.35002H8.4701V4.82002H6.9501V7.87002H26.7601Z" fill="#000001"/>
</g>
<defs>
<clipPath id="clip0_1128_9136">
<rect width="32" height="32" fill="white" transform="translate(0.850098 0.25)"/>
</clipPath>
</defs>
</svg>
