<svg width="1081" height="129" viewBox="0 0 1081 129" fill="none" xmlns="http://www.w3.org/2000/svg">
<g clip-path="url(#clip0_107_4825)">
<g clip-path="url(#clip1_107_4825)">
<path fill-rule="evenodd" clip-rule="evenodd" d="M1014.12 20.9593C1012.27 33.216 1015.8 48.3733 1022.38 63.0301C1032.21 84.9281 1048.83 105.705 1064.21 113.98C1064.53 114.146 1064.87 113.995 1064.98 113.644C1065.08 113.284 1064.91 112.863 1064.59 112.69C1049.45 104.541 1033.11 84.0535 1023.44 62.4866C1017.01 48.1633 1013.51 33.3566 1015.32 21.3769C1015.38 20.9971 1015.16 20.6003 1014.82 20.4829C1014.5 20.3703 1014.18 20.5794 1014.12 20.9593Z" fill="black"/>
<path fill-rule="evenodd" clip-rule="evenodd" d="M1080 129.195C1071.24 123.891 1063.9 118.247 1053.89 116.836C1053.56 116.794 1053.28 117.069 1053.29 117.464C1053.29 117.854 1053.56 118.211 1053.89 118.256C1064.9 119.809 1072.63 126.605 1082.68 132.288C1083.22 132.593 1083.46 132.21 1083.52 132.112C1083.59 131.969 1083.67 131.707 1083.5 131.354C1083.46 131.285 1083.38 131.158 1083.24 130.998C1082.97 130.697 1082.39 130.134 1082.15 129.854C1081.45 129.042 1080.78 128.215 1080.08 127.402C1078.1 125.079 1076.13 122.739 1074.3 120.253C1067.44 110.965 1061.78 103.414 1061.69 91.4569C1061.69 91.06 1061.42 90.7094 1061.08 90.6605C1060.75 90.6164 1060.48 90.8979 1060.48 91.2863C1060.57 103.656 1066.33 111.509 1073.43 121.117C1075.29 123.631 1077.28 126.006 1079.28 128.353C1079.52 128.632 1079.76 128.914 1080 129.195Z" fill="black"/>
</g>
</g>
<defs>
<clipPath id="clip0_107_4825">
<rect width="1080.12" height="128" fill="white" transform="translate(0.378906 0.266602)"/>
</clipPath>
<clipPath id="clip1_107_4825">
<rect width="104" height="128" fill="white" transform="translate(976.5 33.133) rotate(-18.4226)"/>
</clipPath>
</defs>
</svg>
