<svg width="33" height="32" viewBox="0 0 33 32" fill="none" xmlns="http://www.w3.org/2000/svg">
<g clip-path="url(#clip0_1135_1848)">
<path d="M32.6001 19.8101H31.0801V28.9601H32.6001V19.8101Z" fill="#000001"/>
<path d="M31.0801 28.96H29.5601V30.48H31.0801V28.96Z" fill="#000001"/>
<path d="M31.0801 18.29H29.5601V19.81H31.0801V18.29Z" fill="#000001"/>
<path d="M31.0801 10.67H29.5601V12.19H31.0801V10.67Z" fill="#000001"/>
<path d="M28.0301 24.38H26.5101V25.91H28.0301V27.43H29.5601V22.86H28.0301V24.38Z" fill="#000001"/>
<path d="M29.5601 1.53003H28.0301V4.57003H26.5101V7.62003H29.5601V1.53003Z" fill="#000001"/>
<path d="M29.5601 30.48H3.65015V32H29.5601V30.48Z" fill="#000001"/>
<path d="M26.5101 25.91H24.9801V27.43H23.4601V28.96H28.0301V27.43H26.5101V25.91Z" fill="#000001"/>
<path d="M24.9801 24.38H26.5101V22.86H28.0301V21.34H23.4601V22.86H24.9801V24.38Z" fill="#000001"/>
<path d="M24.9801 25.91V24.38H23.4601V22.86H21.9401V27.43H23.4601V25.91H24.9801Z" fill="#000001"/>
<path d="M24.9801 12.1899H23.4601V13.7199H24.9801V12.1899Z" fill="#000001"/>
<path d="M23.4601 1.53003H21.9401V3.05003H23.4601V1.53003Z" fill="#000001"/>
<path d="M21.9401 19.8101H11.2701V21.3401H21.9401V19.8101Z" fill="#000001"/>
<path d="M20.4101 9.14995V7.61995H21.9401V6.09995H20.4101V4.56995H18.8901V6.09995H17.3701V7.61995H18.8901V9.14995H20.4101Z" fill="#000001"/>
<path d="M12.79 22.86V27.43H20.41V22.86H12.79ZM15.84 25.91H14.32V24.38H15.84V25.91ZM18.89 25.91H17.37V24.38H18.89V25.91Z" fill="#000001"/>
<path d="M14.32 1.53003H12.79V3.05003H14.32V1.53003Z" fill="#000001"/>
<path d="M23.4601 10.67H9.75012V12.19H23.4601V10.67Z" fill="#000001"/>
<path d="M12.7901 3.05005H11.2701V4.57005H12.7901V3.05005Z" fill="#000001"/>
<path d="M12.7901 0H11.2701V1.53H12.7901V0Z" fill="#000001"/>
<path d="M9.75009 24.38H8.22009V25.91H9.75009V27.43H11.2701V22.86H9.75009V24.38Z" fill="#000001"/>
<path d="M11.2701 1.53003H9.75012V3.05003H11.2701V1.53003Z" fill="#000001"/>
<path d="M9.75009 12.1899H8.22009V13.7199H9.75009V12.1899Z" fill="#000001"/>
<path d="M8.22005 25.91H6.70005V27.43H5.18005V28.96H9.75005V27.43H8.22005V25.91Z" fill="#000001"/>
<path d="M6.70005 24.38H8.22005V22.86H9.75005V21.34H5.18005V22.86H6.70005V24.38Z" fill="#000001"/>
<path d="M8.22007 6.09998H6.70007V7.61998H8.22007V6.09998Z" fill="#000001"/>
<path d="M6.70015 25.91V24.38H5.18015V22.86H3.65015V27.43H5.18015V25.91H6.70015Z" fill="#000001"/>
<path d="M9.75015 18.29V19.81H11.2701V18.29H21.9401V19.81H23.4601V18.29H29.5601V16.76H26.5101V13.72H24.9801V16.76H23.4601V15.24H20.4101V16.76H18.8901V15.24H14.3201V16.76H12.7901V15.24H9.75015V16.76H8.22015V13.72H6.70015V16.76H3.65015V18.29H9.75015Z" fill="#000001"/>
<path d="M3.65013 28.96H2.13013V30.48H3.65013V28.96Z" fill="#000001"/>
<path d="M3.65013 18.29H2.13013V19.81H3.65013V18.29Z" fill="#000001"/>
<path d="M3.65013 4.56995V9.14995H2.13013V12.1899H5.18013V6.09995H6.70013V4.56995H3.65013Z" fill="#000001"/>
<path d="M2.1301 19.8101H0.600098V28.9601H2.1301V19.8101Z" fill="#000001"/>
<path d="M2.1301 1.53003H0.600098V3.05003H2.1301V1.53003Z" fill="#000001"/>
</g>
<defs>
<clipPath id="clip0_1135_1848">
<rect width="32" height="32" fill="white" transform="translate(0.600098)"/>
</clipPath>
</defs>
</svg>
