<svg width="106" height="133" viewBox="0 0 106 133" fill="none" xmlns="http://www.w3.org/2000/svg">
<path fill-rule="evenodd" clip-rule="evenodd" d="M67.2573 72.8453C67.0713 71.6363 66.9312 70.4411 66.8407 69.2457C66.7043 67.4527 66.7886 65.6459 66.7402 63.8529C66.7192 63.0922 66.6361 61.109 66.6695 60.8237C66.9733 58.3379 68.8046 57.9575 69.3403 57.8896C69.5994 57.8488 72.2602 57.523 72.8343 60.7559C73.5386 64.7088 73.7642 68.6887 73.515 72.5873C74.0965 75.9017 75.091 79.2025 76.404 82.1909C81.6289 94.0767 91.5853 95.2313 102.372 95.1227C104.031 95.0955 105.409 96.5218 105.496 98.3284C105.583 100.149 104.348 101.724 102.696 101.887C96.6664 102.526 85.9685 107.824 82.2699 113.339C81.4962 114.493 81.0462 117.278 80.451 120.008C79.6203 123.798 78.6321 127.547 77.5249 129.123C77.3587 129.367 75.3389 131.867 74.7363 132.234C73.2881 133.103 72.1288 132.6 71.4704 132.138C70.8121 131.677 70.0669 130.766 69.7693 129.259C69.4581 127.683 69.7209 124.45 69.6726 123.757C69.4965 121.244 69.0378 116.313 68.1017 112.075C67.597 109.793 67.0589 107.688 66.1686 106.642C62.873 102.77 57.6034 103.341 53.1658 103.979C52.6562 104.047 52.1466 104.129 51.6383 104.197C49.8318 104.781 47.9136 105.215 45.8863 105.473C42.825 105.867 42.3217 102.784 42.2944 102.58C42.2374 102.132 42.0253 99.8227 44.3328 98.899C44.5845 98.8039 46.4419 98.3556 47.1573 98.179C48.1542 97.9345 49.1622 97.7444 50.1739 97.5678C60.625 94.0089 66.3013 84.0111 67.2573 72.8453ZM70.8443 85.193C74.7896 94.1311 80.7771 98.4507 87.8743 100.407H87.8731C83.4417 102.947 79.4107 106.126 77.2744 109.318C76.4635 110.527 75.7196 112.958 75.0488 115.688C74.6855 113.148 74.1945 110.445 73.546 108.136C72.8083 105.501 71.8151 103.314 70.7066 102.01C68.5666 99.4967 65.8809 98.0976 62.9932 97.4048C66.4501 94.0496 69.0712 89.8658 70.8443 85.193Z" fill="black"/>
<path fill-rule="evenodd" clip-rule="evenodd" d="M25.4946 15.2502C25.3086 14.0413 25.1685 12.846 25.078 11.6507C24.9416 9.85762 25.0259 8.05085 24.9775 6.2578C24.9565 5.49711 24.8734 3.51391 24.9069 3.22865C25.2106 0.742826 27.0419 0.362435 27.5776 0.294516C27.8367 0.253765 30.4975 -0.0720991 31.0716 3.16083C31.7759 7.1137 32.0015 11.0937 31.7523 14.9922C32.3338 18.3066 33.3283 21.6074 34.6413 24.5958C39.8662 36.4816 49.8226 37.6363 60.6097 37.5276C62.2687 37.5004 63.6463 38.9267 63.7331 40.7333C63.8198 42.5536 62.5849 44.1293 60.9334 44.2923C54.9037 44.9307 44.2058 50.2284 40.5072 55.7434C39.7335 56.8981 39.2835 59.6828 38.6883 62.4131C37.8576 66.203 36.8694 69.952 35.7622 71.5277C35.596 71.7722 33.5762 74.2717 32.9736 74.6385C31.5254 75.5078 30.3661 75.0051 29.7078 74.5433C29.0494 74.0814 28.3042 73.1713 28.0066 71.6635C27.6954 70.0878 27.9582 66.8548 27.9099 66.1621C27.7338 63.6491 27.2751 58.7182 26.339 54.4801C25.8343 52.198 25.2962 50.0925 24.4059 49.0466C21.1103 45.1752 15.8407 45.7458 11.4031 46.3842C10.8935 46.4521 10.3839 46.5337 9.87559 46.6016C8.06906 47.1857 6.15089 47.6203 4.12365 47.8784C1.06235 48.2723 0.558981 45.1888 0.531704 44.9851C0.474668 44.5368 0.262623 42.2276 2.57007 41.3039C2.82177 41.2088 4.67916 40.7605 5.39458 40.5839C6.39146 40.3394 7.39947 40.1493 8.41123 39.9727C18.8623 36.4138 24.5386 26.4161 25.4946 15.2502ZM29.0816 27.598C33.027 36.5361 39.0144 40.8556 46.1116 42.8117H46.1104C41.679 45.3519 37.648 48.5305 35.5117 51.7227C34.7008 52.9317 33.9569 55.3631 33.2861 58.0934C32.9228 55.5532 32.4318 52.85 31.7834 50.5408C31.0456 47.9055 30.0524 45.7187 28.9439 44.4146C26.8039 41.9017 24.1182 40.5025 21.2305 39.8097C24.6874 36.4546 27.3085 32.2708 29.0816 27.598Z" fill="black"/>
</svg>
