<svg xmlns="http://www.w3.org/2000/svg" viewBox="0 0 512 512">
  <rect width="512" height="512" rx="80" fill="#F5ECD7"/>
  <g fill="#722F37">
    <rect x="56" y="128" width="14" height="256" rx="7"/>
    <rect x="78" y="158" width="12" height="196" rx="6"/>
    <rect x="96" y="142" width="12" height="228" rx="6"/>
    <rect x="116" y="162" width="12" height="188" rx="6"/>
    <rect x="136" y="186" width="12" height="148" rx="6"/>
    <rect x="156" y="208" width="12" height="112" rx="6"/>
    <rect x="176" y="226" width="12" height="84" rx="6"/>
  </g>
  <g fill="#C9A84C">
    <rect x="198" y="242" width="14" height="60" rx="7"/>
    <rect x="218" y="250" width="12" height="44" rx="6"/>
    <rect x="236" y="254" width="12" height="36" rx="6"/>
    <rect x="254" y="250" width="12" height="44" rx="6"/>
    <rect x="272" y="242" width="14" height="60" rx="7"/>
  </g>
  <g fill="#722F37">
    <rect x="294" y="226" width="12" height="84" rx="6"/>
    <rect x="314" y="208" width="12" height="112" rx="6"/>
    <rect x="334" y="186" width="12" height="148" rx="6"/>
    <rect x="354" y="162" width="12" height="188" rx="6"/>
    <rect x="374" y="142" width="12" height="228" rx="6"/>
    <rect x="392" y="158" width="12" height="196" rx="6"/>
    <rect x="412" y="128" width="14" height="256" rx="7"/>
  </g>
  <circle cx="236" cy="310" r="8" fill="#B85C3A"/>
</svg>
