<svg width="175" height="151" viewBox="0 0 175 151" fill="none" xmlns="http://www.w3.org/2000/svg">
<g clip-path="url(#clip0_107_4838)">
<path fill-rule="evenodd" clip-rule="evenodd" d="M114.877 141.36C121.309 141.784 127.667 142.259 134.108 142.495C135.493 142.551 136.651 141.479 136.702 140.102C136.758 138.717 135.677 137.554 134.3 137.503C127.895 137.264 121.59 136.794 115.204 136.371C113.823 136.284 112.635 137.329 112.544 138.696C112.457 140.076 113.497 141.273 114.877 141.36Z" fill="black"/>
<path fill-rule="evenodd" clip-rule="evenodd" d="M91.3522 93.526C107.562 81.1948 123.138 68.0522 139.074 55.3835C140.156 54.5194 140.332 52.9489 139.477 51.8725C138.613 50.7915 137.047 50.6062 135.957 51.4656C120.053 64.1172 104.509 77.2428 88.3264 89.5432C87.2235 90.3845 87.0154 91.9495 87.8478 93.0477C88.689 94.1506 90.254 94.3583 91.3522 93.526Z" fill="black"/>
<path fill-rule="evenodd" clip-rule="evenodd" d="M28.8772 54.9461C34.433 38.6493 39.5413 22.1717 45.279 5.93742C45.7309 4.63761 45.0497 3.21223 43.7545 2.75151C42.4506 2.28611 41.0205 2.9762 40.5598 4.27132C34.8216 20.5279 29.7038 37.0232 24.1475 53.3424C23.7044 54.6469 24.3991 56.0683 25.7036 56.5114C27.017 56.9591 28.4295 56.2594 28.8772 54.9461Z" fill="black"/>
</g>
<defs>
<clipPath id="clip0_107_4838">
<rect width="174.158" height="150.165" fill="white" transform="translate(0 0.266602)"/>
</clipPath>
</defs>
</svg>
