<svg width="33" height="32" viewBox="0 0 33 32" fill="none" xmlns="http://www.w3.org/2000/svg">
<g clip-path="url(#clip0_1128_4898)">
<path d="M29.8201 23.625H28.2901V22.1H26.7701V20.58H25.2401V17.53H23.7201V20.58H22.2001V22.1H20.6701V23.63H17.6301V25.15H20.6701V26.67H22.2001V28.2H23.7201V29.72H25.2401V31.24H29.8201V29.72H31.3401V25.15H29.8201V23.625ZM29.8201 28.195H28.2901V26.665H26.7701V25.145H25.2401V23.625H26.7701V25.145H28.2901V26.665H29.8201V28.195Z" fill="#000001"/>
<path d="M26.7701 9.90503H25.2401V17.525H26.7701V9.90503Z" fill="#000001"/>
<path d="M25.2401 6.85504H23.7201V9.90504H25.2401V6.85504Z" fill="#000001"/>
<path d="M23.7201 5.33502H22.2001V6.85502H23.7201V5.33502Z" fill="#000001"/>
<path d="M22.2001 12.955H20.6701V14.475H22.2001V12.955Z" fill="#000001"/>
<path d="M22.2001 3.815H20.6701V5.335H22.2001V3.815Z" fill="#000001"/>
<path d="M20.6701 14.475H19.1501V16.005H20.6701V14.475Z" fill="#000001"/>
<path d="M20.6701 11.425H19.1501V12.955H20.6701V11.425Z" fill="#000001"/>
<path d="M19.1501 16.005H17.6301V17.525H19.1501V16.005Z" fill="#000001"/>
<path d="M19.1501 9.90503H17.6301V11.425H19.1501V9.90503Z" fill="#000001"/>
<path d="M20.6701 2.28503H17.6301V3.81503H20.6701V2.28503Z" fill="#000001"/>
<path d="M17.6301 25.145H10.0101V26.665H17.6301V25.145Z" fill="#000001"/>
<path d="M16.1001 9.90503H14.5801V12.955H16.1001V9.90503Z" fill="#000001"/>
<path d="M14.5801 12.955H13.0501V14.475H14.5801V12.955Z" fill="#000001"/>
<path d="M13.0501 14.475H11.5301V17.525H13.0501V14.475Z" fill="#000001"/>
<path d="M17.6301 0.765015H10.0101V2.28501H17.6301V0.765015Z" fill="#000001"/>
<path d="M10.0101 23.625H6.96008V25.145H10.0101V23.625Z" fill="#000001"/>
<path d="M10.0101 16.005H8.4801V17.525H10.0101V16.005Z" fill="#000001"/>
<path d="M10.0101 9.90503H8.4801V11.425H10.0101V9.90503Z" fill="#000001"/>
<path d="M10.0101 2.28503H6.96008V3.81503H10.0101V2.28503Z" fill="#000001"/>
<path d="M8.48008 14.475H6.96008V16.005H8.48008V14.475Z" fill="#000001"/>
<path d="M8.48008 11.425H6.96008V12.955H8.48008V11.425Z" fill="#000001"/>
<path d="M6.96012 22.095H5.44012V23.625H6.96012V22.095Z" fill="#000001"/>
<path d="M6.96012 12.955H5.44012V14.475H6.96012V12.955Z" fill="#000001"/>
<path d="M6.96012 3.815H5.44012V5.335H6.96012V3.815Z" fill="#000001"/>
<path d="M5.4401 20.575H3.9101V22.095H5.4401V20.575Z" fill="#000001"/>
<path d="M5.4401 5.33502H3.9101V6.85502H5.4401V5.33502Z" fill="#000001"/>
<path d="M3.91014 17.525H2.39014V20.575H3.91014V17.525Z" fill="#000001"/>
<path d="M3.91014 6.85504H2.39014V9.90504H3.91014V6.85504Z" fill="#000001"/>
<path d="M2.39011 9.90503H0.860107V17.525H2.39011V9.90503Z" fill="#000001"/>
</g>
<defs>
<clipPath id="clip0_1128_4898">
<rect width="32" height="32" fill="white" transform="translate(0.100098)"/>
</clipPath>
</defs>
</svg>
