<svg width="33" height="33" viewBox="0 0 33 33" fill="none" xmlns="http://www.w3.org/2000/svg">
<g clip-path="url(#clip0_1135_3607)">
<path d="M27.5101 13.2V14.72H29.0401V23.87H27.5101V25.39H30.5601V14.72H32.0901V10.15H30.5601V13.2H27.5101Z" fill="#000001"/>
<path d="M30.5602 2.53003H29.0402V7.11003H30.5602V2.53003Z" fill="#000001"/>
<path d="M3.13013 8.63006V10.1501H6.18013V8.63006H10.7501V10.1501H6.18013V11.6801H7.71013V14.7201H6.18013V16.2501H7.71013V25.3901H6.18013V26.9201H9.23013V28.4401H12.2801V19.3001H15.3201V17.7701H12.2801V14.7201H15.3201V13.2001H12.2801V11.6801H21.4201V13.2001H18.3701V14.7201H21.4201V17.7701H18.3701V19.3001H21.4201V26.9201H19.9001V28.4401H18.3701V29.9601H21.4201V28.4401H24.4701V26.9201H27.5101V25.3901H25.9901V16.2501H27.5101V14.7201H25.9901V11.6801H27.5101V10.1501H22.9401V8.63006H27.5101V10.1501H30.5601V8.63006H29.0401V7.11006H27.5101V4.06006H24.4701V5.58006H21.4201V7.11006H19.9001V4.06006H18.3701V7.11006H15.3201V4.06006H13.8001V8.63006H12.2801V5.58006H9.23013V4.06006H6.18013V7.11006H4.66013V8.63006H3.13013ZM15.3201 8.63006H18.3701V10.1501H15.3201V8.63006Z" fill="#000001"/>
<path d="M29.0401 1.01001H22.9401V2.53001H29.0401V1.01001Z" fill="#000001"/>
<path d="M22.9401 2.53003H19.9001V4.06003H22.9401V2.53003Z" fill="#000001"/>
<path d="M18.3701 2.53003H15.3201V4.06003H18.3701V2.53003Z" fill="#000001"/>
<path d="M18.3701 29.96H15.3201V31.49H18.3701V29.96Z" fill="#000001"/>
<path d="M18.3701 19.3H15.3201V20.82H18.3701V19.3Z" fill="#000001"/>
<path d="M18.3701 14.72H15.3201V16.25H18.3701V14.72Z" fill="#000001"/>
<path d="M15.3202 28.4401H12.2802V29.9601H15.3202V28.4401Z" fill="#000001"/>
<path d="M13.8001 2.53003H10.7501V4.06003H13.8001V2.53003Z" fill="#000001"/>
<path d="M10.7502 1.01001H4.66016V2.53001H10.7502V1.01001Z" fill="#000001"/>
<path d="M4.66011 23.87V14.72H6.18011V13.2H3.13011V10.15H1.61011V14.72H3.13011V25.39H6.18011V23.87H4.66011Z" fill="#000001"/>
<path d="M4.66013 2.53003H3.13013V7.11003H4.66013V2.53003Z" fill="#000001"/>
</g>
<defs>
<clipPath id="clip0_1135_3607">
<rect width="32" height="32" fill="white" transform="translate(0.850098 0.25)"/>
</clipPath>
</defs>
</svg>
