<svg width="49" height="48" viewBox="0 0 49 48" fill="none" xmlns="http://www.w3.org/2000/svg">
<path fill-rule="evenodd" clip-rule="evenodd" d="M24.2163 43.1266C26.693 43.1266 29.1455 42.6388 31.4337 41.691C33.7219 40.7432 35.801 39.3539 37.5523 37.6026C39.3037 35.8513 40.6929 33.7722 41.6407 31.484C42.5885 29.1958 43.0763 26.7433 43.0763 24.2666C43.0763 21.7899 42.5885 19.3374 41.6407 17.0492C40.6929 14.761 39.3037 12.6819 37.5523 10.9306C35.801 9.17925 33.7219 7.79004 31.4337 6.84223C29.1455 5.89443 26.693 5.4066 24.2163 5.4066C19.2143 5.4066 14.4172 7.39363 10.8803 10.9306C7.34334 14.4675 5.35631 19.2646 5.35631 24.2666C5.35631 29.2686 7.34334 34.0657 10.8803 37.6026C14.4172 41.1396 19.2143 43.1266 24.2163 43.1266ZM24.2163 46.7666C30.1837 46.7666 35.9066 44.3961 40.1262 40.1765C44.3458 35.9569 46.7163 30.234 46.7163 24.2666C46.7163 18.2992 44.3458 12.5763 40.1262 8.3567C35.9066 4.13713 30.1837 1.7666 24.2163 1.7666C18.2489 1.7666 12.526 4.13713 8.30641 8.3567C4.08684 12.5763 1.71631 18.2992 1.71631 24.2666C1.71631 30.234 4.08684 35.9569 8.30641 40.1765C12.526 44.3961 18.2489 46.7666 24.2163 46.7666Z" fill="#01B15D"/>
<path fill-rule="evenodd" clip-rule="evenodd" d="M13.3564 30.6266L9.1264 25.5366L8.0564 24.2566L9.1264 22.9766L13.3564 17.8966H18.5664L13.2664 24.2566L18.5664 30.6266H13.3664H13.3564ZM19.6864 30.6266L24.7764 17.8966H29.0764L23.9864 30.6266H19.6864ZM35.0664 30.6266H29.8564L35.1564 24.2566L29.8564 17.8966H35.0564L39.2964 22.9766L40.3664 24.2566L39.2964 25.5366L35.0664 30.6266Z" fill="#01B15D"/>
</svg>
