<svg width="29" height="49" viewBox="0 0 29 49" fill="none" xmlns="http://www.w3.org/2000/svg">
<path d="M27.9557 32.3391C27.9202 32.1159 27.8348 31.9034 27.7057 31.7169C27.6143 31.5884 27.4901 31.4862 27.3457 31.4205C27.2157 31.3711 27.0657 31.3613 26.9457 31.3711C26.6957 31.3909 26.4457 31.4897 26.2057 31.5884C25.6857 31.8057 25.0657 31.9638 24.4957 31.9835C23.3457 32.0329 22.2157 32.0626 21.0757 32.0823L18.2157 32.1613C17.4957 32.2008 15.7357 32.1416 15.4357 32.7836C15.2657 33.1589 16.0657 33.6034 16.6057 33.7022C17.3657 33.8405 21.1657 33.9392 23.1657 33.959L24.3657 33.9195C23.6757 34.6109 18.8057 38.5223 16.8057 39.8656C15.0942 40.9422 13.1145 41.5302 11.0857 41.5645C7.96573 41.7127 5.20573 39.4705 4.92573 36.5864C4.72573 34.7097 5.10573 32.8923 5.70573 31.0551L6.76573 31.1637L7.36573 31.223C7.94573 31.2724 8.50573 31.3119 9.06573 31.2822C11.6557 31.1538 14.3657 29.8007 16.5157 27.8548C18.6657 25.9189 20.2857 23.3804 20.6657 20.8617C20.8657 19.5974 20.6657 18.5899 20.0657 17.8985C19.4457 17.2071 18.4457 16.9108 17.1457 16.9503C13.8057 17.0491 10.9757 18.3035 8.89573 20.8716C7.99258 22.0233 7.14497 23.2165 6.35573 24.4472L5.33573 25.9683C5.13573 26.2448 4.96573 26.5411 4.75573 26.8671L4.60573 27.114C4.25302 26.6349 4.00059 26.0911 3.86322 25.5145C3.72586 24.9379 3.70631 24.3399 3.80573 23.7557C4.08573 21.9482 4.41573 20.1011 5.09573 18.422C7.06573 13.4932 10.1257 9.2855 14.3457 5.91734C15.4717 5.0716 16.5819 4.20554 17.6757 3.31961C18.2057 2.88501 18.6857 2.38127 19.1257 1.85777C19.1857 1.79851 19.2157 1.70961 19.2257 1.6306C19.2457 1.55158 19.2557 1.46268 19.2557 1.38366C19.26 1.2165 19.2148 1.05173 19.1257 0.909552C19.0215 0.781943 18.8828 0.686064 18.7257 0.632988C18.5757 0.577588 18.4156 0.554029 18.2557 0.563847C17.9138 0.63314 17.5924 0.778383 17.3157 0.988571L16.0157 1.87753C14.8157 2.70722 13.6157 3.52704 12.4657 4.44563C7.76593 8.17573 4.22703 13.1399 2.25573 18.7677C1.82923 19.9453 1.52761 21.1635 1.35573 22.4026C0.995733 24.8521 1.25573 27.2523 3.05573 29.2376C3.22573 29.4352 3.30573 29.6229 3.33573 29.7908C3.35573 29.9686 3.33573 30.176 3.26573 30.4427L3.06573 31.2329C2.74573 32.5169 2.41573 33.8306 2.31573 35.1542C1.85573 40.6657 6.33573 44.8043 11.9157 44.1622C14.6157 43.8462 17.0957 42.9375 19.2757 41.3472C19.5357 41.1694 20.0257 40.7842 20.5757 40.3299L20.7957 40.1521L22.8057 38.4532L23.0257 38.2754C23.2257 38.1173 23.4057 37.9494 23.6557 37.7222L23.7157 37.6729L23.5957 38.2161L22.9757 40.4484C22.4657 42.2856 21.9557 44.1129 21.4757 45.9599L21.3757 46.2365L21.3357 46.3649C21.2957 46.513 21.2457 46.6612 21.2357 46.839C21.1757 47.1847 21.2357 47.5403 21.5357 47.9057C21.5603 47.9329 21.592 47.9527 21.6273 47.9632C21.6626 47.9737 21.7001 47.9743 21.7357 47.965C22.2357 47.886 22.5457 47.6391 22.7657 47.3427C22.9557 47.0761 23.0657 46.7699 23.1657 46.5032C23.1657 46.4637 23.1857 46.434 23.1957 46.4044C24.7957 41.9596 26.3957 37.4852 27.9557 33.0009C28.0157 32.8034 27.9957 32.5564 27.9557 32.3391ZM12.4557 20.6642C13.8602 19.6335 15.5661 19.0822 17.3157 19.0937C17.8857 19.064 18.2057 19.1727 18.3657 19.3406C18.5157 19.4986 18.5757 19.7851 18.4457 20.3086C18.1957 21.3852 17.8457 22.4816 17.2657 23.3804C15.9973 25.3633 14.2067 26.968 12.0857 28.0227C10.4303 28.858 8.51845 29.0518 6.72573 28.566C8.31573 25.5139 9.82573 22.7088 12.4557 20.6642Z" fill="#0FA958" stroke="#0FA958" stroke-linejoin="round"/>
</svg>
