<svg width="711" height="13" viewBox="0 0 711 13" fill="none" xmlns="http://www.w3.org/2000/svg">
<path fill-rule="evenodd" clip-rule="evenodd" d="M126.441 4.37636C118.679 4.90016 111.393 5.65849 104.823 6.72171C104.108 6.83898 103.891 7.00311 103.826 7.07347C103.717 7.19856 103.761 7.31588 103.934 7.42533C104.043 7.49569 104.216 7.5817 104.585 7.63643C104.845 7.67552 105.517 7.70676 106.406 7.69894C107.924 7.69112 110.266 7.6286 111.393 7.6286C115.253 7.64424 119.112 7.63636 122.972 7.65981C135.266 7.73799 137.412 7.80053 153.219 7.75362C171.671 7.6989 190.166 7.60509 208.64 7.46436C149.923 8.63704 91.2934 10.0052 32.9672 11.2795C32.3167 11.2951 31.818 11.4984 31.8614 11.733C31.8831 11.9753 32.4684 12.1551 33.1189 12.1395C169.221 9.16873 306.819 5.66629 443.961 5.43958C450.726 5.4943 457.469 5.54899 464.191 5.60372C504.802 5.9477 545.435 6.36208 586.004 7.00314C599.208 7.21422 612.413 7.44874 625.639 7.66764C629.542 7.73018 633.467 7.79271 637.392 7.85526C640.557 7.90216 648.71 8.07419 649.859 8.082C650.9 8.08982 651.16 7.7537 651.182 7.73806C651.247 7.62862 651.203 7.50347 650.943 7.38621C650.878 7.35493 650.705 7.26898 650.314 7.22989C650.249 7.22989 649.946 7.21421 649.317 7.19076C616.706 6.22917 584.009 5.56466 551.247 5.14249C555.648 5.15813 560.05 5.16599 564.451 5.18162C598.385 5.27544 632.404 5.6116 666.316 5.18162C674.035 5.08781 681.776 4.97832 689.473 4.84541C694.655 4.75942 707.99 4.86888 709.876 4.66562C710.744 4.57962 710.939 4.3607 710.96 4.25125C710.982 4.12617 710.917 3.98544 710.527 3.86036C710.353 3.79782 709.811 3.69623 708.792 3.61806C675.509 1.01472 636.568 1.74954 602.678 1.02249C510.635 -0.971059 418.917 0.358028 326.896 1.56979C247.473 2.61738 168.05 2.67209 88.6697 4.09493C59.615 4.61091 29.6498 4.01679 1.00708 5.98688C0.356607 6.03379 -0.0555005 6.2526 0.0529126 6.48714C0.183008 6.72167 0.811857 6.87808 1.46233 6.83117C29.975 4.8689 59.832 5.47085 88.7782 4.95487C101.332 4.72816 113.887 4.54054 126.441 4.37636ZM371.996 4.95487C323.362 4.68125 274.728 4.5405 226.051 4.62649C192.66 4.68122 144.004 2.39068 110.83 6.76866C111.068 6.76866 111.263 6.76866 111.436 6.76866C115.296 6.7843 119.156 6.7686 123.015 6.79987C135.288 6.87805 137.434 6.94059 153.197 6.89368C193.505 6.76859 233.922 6.45593 274.208 5.97123C306.84 5.58034 339.429 5.2285 371.996 4.95487ZM700.987 3.94634C669.525 1.96062 633.857 2.55486 602.526 1.88252C510.57 -0.111022 418.918 1.21797 326.983 2.42973C285.895 2.97698 244.828 3.25059 203.783 3.58675C211.654 3.6962 219.178 3.77437 226.051 3.76655C295.63 3.64146 365.188 3.97769 434.767 4.5093C477.981 4.27477 521.194 4.18877 564.473 4.31385C598.385 4.41549 632.339 4.74384 666.251 4.32168C673.948 4.22787 681.667 4.11837 689.365 3.98547C691.988 3.94638 696.737 3.95416 700.987 3.94634Z" fill="black"/>
</svg>
