<svg width="1490" height="992" viewBox="0 0 596 397" fill="none" xmlns="http://www.w3.org/2000/svg" transform="rotate(60)">
  <path d="M3.33837 2.87087C-1.06263 7.27187 -1.06263 27.8099 3.04497 40.7195C8.61957 57.1499 31.5048 89.1305 47.6418 103.507C60.5514 114.95 92.8254 133.14 108.376 138.128C111.016 139.008 118.058 149.571 123.926 161.894C146.518 207.077 190.234 238.764 267.398 265.17C307.888 278.96 380.064 289.816 431.116 289.816C445.492 289.816 457.522 290.99 457.522 292.457C457.522 293.63 451.947 298.618 444.905 303.019C428.768 313.875 384.758 356.418 379.477 366.687C375.663 374.022 375.663 375.782 380.064 382.237C382.705 386.345 388.279 390.452 392.68 391.626C396.788 392.506 400.895 394.56 401.776 395.733C402.656 397.2 407.937 395.733 413.512 392.506C419.086 389.279 431.409 382.824 440.504 377.836C461.629 366.687 540.26 308.007 538.207 304.486C537.62 303.312 539.087 300.378 542.021 298.325C546.422 294.51 546.715 294.804 542.901 299.205C540.847 302.139 540.26 304.486 542.021 304.486C545.542 304.486 551.996 297.151 549.943 295.097C549.062 294.217 550.823 291.87 553.463 289.523C558.158 285.708 558.451 286.002 554.637 290.403C552.583 293.337 551.996 295.684 553.463 295.684C556.984 295.684 565.493 286.589 566.08 282.481C566.373 280.721 567.253 278.96 568.133 278.08C569.307 277.2 569.014 278.373 567.84 280.134C566.666 282.188 566.96 283.948 568.427 283.948C571.654 283.948 577.229 278.08 577.816 273.679C578.109 271.919 578.989 270.158 579.869 269.278C581.043 268.398 580.75 269.571 579.283 271.919C577.816 274.559 578.402 275.439 581.043 274.559C583.39 273.679 584.857 271.332 584.27 269.571C583.977 267.811 584.564 266.637 585.737 266.637C597.767 268.691 598.647 250.5 587.204 238.178C574.882 224.681 565.786 220.867 504.466 202.97C441.385 184.779 414.685 180.378 411.751 188.006C407.057 200.329 424.954 211.772 476.593 229.669C489.502 234.363 501.238 238.764 502.412 240.231C506.813 243.752 443.145 246.686 391.507 244.926C338.401 243.165 301.139 237.884 260.944 226.148C229.256 217.053 191.995 199.742 178.498 187.713C167.349 178.031 152.972 149.864 157.373 146.343C158.547 145.17 169.109 141.356 180.552 137.835C215.173 126.979 242.753 104.974 248.914 82.9691C257.129 53.0423 221.041 8.15206 188.474 8.15206C168.229 8.15206 136.542 34.2647 123.046 62.4311C119.525 69.7661 115.124 83.5559 113.363 93.2381C109.256 114.363 106.909 114.95 81.3828 101.453C51.1626 85.3163 25.6368 50.4017 21.5292 19.3013C19.7688 6.39166 18.5952 4.63127 12.7272 5.51147C11.5536 5.51147 9.79317 4.33785 8.91297 2.57745C7.44597 0.230247 5.68557 0.523673 3.33837 2.87087ZM167.056 30.1571C167.056 30.7439 164.122 33.0911 160.601 34.8515C154.439 38.0789 154.146 38.0788 157.96 33.6778C161.774 28.9834 167.056 26.9297 167.056 30.1571ZM211.652 51.2819C214.293 61.2575 208.132 75.0473 196.102 85.9031C182.606 97.9325 160.307 109.375 158.84 104.681C156.493 98.5193 173.51 70.0595 186.127 58.3235C199.916 45.7073 209.599 43.0667 211.652 51.2819ZM486.568 293.63C485.981 294.217 471.898 305.073 455.174 317.396C438.451 330.012 418.499 345.855 410.284 353.19C390.04 371.088 387.692 369.327 407.644 350.843C427.301 332.946 484.514 289.523 486.568 291.283C487.155 292.163 487.155 293.337 486.568 293.63ZM533.806 305.66C533.806 307.713 471.605 354.951 470.431 353.777C469.844 352.897 530.285 305.366 533.219 304.779C533.512 304.486 533.806 305.073 533.806 305.66Z" fill="#4E2A84"/>
</svg>