<svg width="49" height="48" viewBox="0 0 49 48" fill="none" xmlns="http://www.w3.org/2000/svg">
<path fill-rule="evenodd" clip-rule="evenodd" d="M24.2163 42.86C26.693 42.86 29.1455 42.3722 31.4337 41.4244C33.7219 40.4766 35.801 39.0873 37.5523 37.336C39.3037 35.5847 40.6929 33.5056 41.6407 31.2174C42.5885 28.9292 43.0763 26.4767 43.0763 24C43.0763 21.5233 42.5885 19.0708 41.6407 16.7826C40.6929 14.4944 39.3037 12.4153 37.5523 10.664C35.801 8.91265 33.7219 7.52344 31.4337 6.57563C29.1455 5.62783 26.693 5.14 24.2163 5.14C19.2143 5.14 14.4172 7.12703 10.8803 10.664C7.34334 14.2009 5.35631 18.998 5.35631 24C5.35631 29.002 7.34334 33.7991 10.8803 37.336C14.4172 40.873 19.2143 42.86 24.2163 42.86ZM24.2163 46.5C30.1837 46.5 35.9066 44.1295 40.1262 39.9099C44.3458 35.6903 46.7163 29.9674 46.7163 24C46.7163 18.0326 44.3458 12.3097 40.1262 8.0901C35.9066 3.87053 30.1837 1.5 24.2163 1.5C18.2489 1.5 12.526 3.87053 8.30641 8.0901C4.08684 12.3097 1.71631 18.0326 1.71631 24C1.71631 29.9674 4.08684 35.6903 8.30641 39.9099C12.526 44.1295 18.2489 46.5 24.2163 46.5Z" fill="#62CBAB"/>
<path fill-rule="evenodd" clip-rule="evenodd" d="M13.3562 30.36L9.12615 25.27L8.05615 23.99L9.12615 22.71L13.3562 17.63H18.5662L13.2662 23.99L18.5662 30.36H13.3662H13.3562ZM19.6862 30.36L24.7762 17.63H29.0762L23.9862 30.36H19.6862ZM35.0662 30.36H29.8562L35.1562 23.99L29.8562 17.63H35.0562L39.2962 22.71L40.3662 23.99L39.2962 25.27L35.0662 30.36Z" fill="#62CBAB"/>
</svg>
